<svg xmlns="http://www.w3.org/2000/svg" xmlns:xlink="http://www.w3.org/1999/xlink" width="300" height="300" viewBox="0 0 300 300"><title>black</title><path d="m148 12.7c-32.2 0.902-58 24.4-58 53.2 0 16.6 8.58 31.5 22.1 41.3-7.57-3.06-16-4.74-24.8-4.74-33.1 0-60 23.8-60 53.2 0 29.4 26.9 53.2 60 53.2 23.5 0 43.9-12.1 53.7-29.6 0 0 1.72 27.4-6.89 54.9-8.61 27.4-27.6 54.9-27.6 54.9h88.2s-18.9-27.4-27.6-54.7c-8.61-27.4-6.89-54.7-6.89-54.7 9.88 17.4 30.1 29.3 53.6 29.3 33.1 0 60-23.8 60-53.2 0-29.4-26.9-53.2-60-53.2-10 0-19.5 2.15-27.8 6.03 14.6-9.72 24-25.2 24-42.6 0-29.4-26.9-53.2-60-53.2-0.388 0-0.798-0.00652-1.18 0-0.255 0.0043-0.5-0.00711-0.754 0z" fill="#212121"/></svg>